<svg width="45" height="17" viewBox="0 0 45 17" fill="none" xmlns="http://www.w3.org/2000/svg">
<path fill-rule="evenodd" clip-rule="evenodd" d="M12 5.22233H13.1178V5.94452H13.1711C13.2881 5.80003 13.4371 5.65563 13.6075 5.53345C13.8948 5.32234 14.31 5.11123 14.8743 5.11123C16.3114 5.11123 17.429 6.27788 17.429 8.05561C17.429 9.83341 16.3114 11 14.8743 11C14.31 11 13.8948 10.8 13.6075 10.5889C13.4371 10.4666 13.2881 10.3222 13.1711 10.1667H13.1178V13H12V5.22233ZM14.6613 9.94451C15.6301 9.94451 16.2581 9.28888 16.2581 8.05561C16.2581 6.82227 15.6301 6.16671 14.6613 6.16671C13.7565 6.16671 13.1178 6.82227 13.1178 8.05561C13.1178 9.28888 13.7565 9.94451 14.6613 9.94451Z" fill="white"/>
<path fill-rule="evenodd" clip-rule="evenodd" d="M18.2629 5.22291H19.3807V6.0562H19.434C19.5191 5.88956 19.6363 5.74515 19.7746 5.61182C20.0194 5.38963 20.3812 5.16729 20.9242 5.16729H21.563V6.27846H20.8711C20.0194 6.27846 19.3807 6.88956 19.3807 7.83394V10.8895H18.2629V5.22291Z" fill="white"/>
<path fill-rule="evenodd" clip-rule="evenodd" d="M24.5484 5.11163C26.092 5.11163 27.3161 6.40052 27.3161 8.0561V8.44484H22.8985C23.0689 9.38939 23.7501 9.94492 24.5484 9.94492C25.102 9.94492 25.4959 9.76714 25.7407 9.55602C25.8791 9.44492 25.9963 9.31159 26.092 9.16711H27.2629C27.1245 9.51148 26.9435 9.82267 26.6988 10.0893C26.2731 10.5338 25.6236 11.0004 24.5484 11.0004C23.005 11.0004 21.7808 9.71157 21.7808 8.0561C21.7808 6.40052 23.005 5.11163 24.5484 5.11163ZM26.1452 7.50045C26.0281 6.83382 25.5172 6.1671 24.5484 6.1671C23.8032 6.1671 23.122 6.65603 22.9517 7.50045H26.1452Z" fill="white"/>
<path fill-rule="evenodd" clip-rule="evenodd" d="M28.1252 5.22233H29.243V6.00014H29.2963C29.392 5.83342 29.5092 5.68894 29.6581 5.55561C29.9137 5.33342 30.2968 5.11123 30.893 5.11123C31.5849 5.11123 32.0214 5.37781 32.2874 5.64455C32.4472 5.80003 32.5643 5.97783 32.6495 6.16671H32.7027C32.7984 5.97783 32.9368 5.80003 33.1178 5.64455C33.4052 5.37781 33.8736 5.11123 34.5655 5.11123C35.8003 5.11123 36.5882 5.93344 36.5882 7.50008V10.8889H35.4703V7.55561C35.4703 6.61116 35.0552 6.16671 34.2994 6.16671C33.5649 6.16671 32.9156 6.83335 32.9156 7.77788V10.8889H31.7978V7.55561C31.7978 6.61116 31.3826 6.16671 30.6268 6.16671C29.8923 6.16671 29.243 6.83335 29.243 7.77788V10.8889H28.1252V5.22233Z" fill="white"/>
<path fill-rule="evenodd" clip-rule="evenodd" d="M38.217 3C38.5895 3 38.8879 3.31112 38.8879 3.70003C38.8879 4.08894 38.5895 4.38883 38.217 4.38883C37.8446 4.38883 37.5571 4.08894 37.5571 3.70003C37.5571 3.31112 37.8446 3 38.217 3ZM37.6636 10.8888H38.7814V5.22227H37.6636V10.8888Z" fill="white"/>
<path fill-rule="evenodd" clip-rule="evenodd" d="M42.1259 5.11163C42.6793 5.11163 43.1052 5.32274 43.3927 5.53385C43.5631 5.65602 43.7121 5.80051 43.8291 5.94492H43.8826V5.22273H45V10.8893H43.8826V10.1115H43.8291C43.7121 10.2782 43.5631 10.4226 43.3927 10.556C43.1052 10.7782 42.6793 11.0004 42.1259 11.0004C40.689 11.0004 39.5712 9.83382 39.5712 8.0561C39.5712 6.27835 40.689 5.11163 42.1259 5.11163ZM42.3388 9.94492C43.2437 9.94492 43.8826 9.28937 43.8826 8.0561C43.8826 6.82274 43.2437 6.1671 42.3388 6.1671C41.37 6.1671 40.7421 6.82274 40.7421 8.0561C40.7421 9.28937 41.37 9.94492 42.3388 9.94492Z" fill="white"/>
<path fill-rule="evenodd" clip-rule="evenodd" d="M2.17565 5.80652H5.82434C6.03182 5.80652 6.15166 6.05016 6.0297 6.22384L4.29324 8.69524C4.17115 8.86893 4.29105 9.11256 4.49854 9.11256H6.02883C6.11004 9.11256 6.18635 9.07234 6.23413 9.00426L7.95146 6.56015C8.01618 6.46796 8.01618 6.3432 7.95146 6.25101L6.44583 4.1083C6.39808 4.04024 6.32174 4 6.24057 4H1.75944C1.67819 4 1.60193 4.04024 1.55415 4.1083L0.048538 6.25101C-0.0161793 6.3432 -0.0161793 6.46802 0.048538 6.56015L3.79463 11.8918C3.89598 12.0361 4.10396 12.0361 4.20532 11.8918L4.97037 10.8029C5.03516 10.7107 5.03516 10.5859 4.97037 10.4937L1.97036 6.22384C1.84834 6.05016 1.96818 5.80652 2.17565 5.80652Z" fill="#5294FF"/>
</svg>
